#!OML:ASF E:\emotionWalksFemale\Project 1\Capture day 1\Session 1\Female1.ASF
:FULLY-SPECIFIED
:DEGREES
395
root 7.67133 15.6245 14.5512 -180.678 -0.591087 -179.425
lowerback 7.28974 1.19952 0.706366
upperback -4.54661 1.59396 -0.111749
thorax -8.88356 0.691866 -0.745878
lowerneck -8.32277 -2.73758 -5.94136
upperneck 12.9569 -3.87431 5.18939
head 5.48428 -1.93117 2.30894
rclavicle 8.94531e-016 -1.09332e-015
rhumerus -46.3629 22.0026 -103.613
rradius 34.916
rwrist 18.9221
rhand -5.78068 -52.9543
rfingers 7.12502
rthumb 20.0432 -441.941
lclavicle 8.94531e-016 -1.09332e-015
lhumerus -42.5326 -6.83956 91.4914
lradius 34.109
lwrist -18.1513
lhand -0.981001 -33.8968
lfingers 7.12502
lthumb 24.6504 -5.46434
rfemur 2.11774 19.5859 27.4844
rtibia 12.6865
rfoot -12.9671 -33.0803
rtoes 2.8798
lfemur -3.13755 -21.816 -24.8612
ltibia 20.3961
lfoot -19.7937 24.1197
ltoes -25.0312
396
root 7.67286 15.6244 14.5512 -180.661 -0.656114 -179.395
lowerback 7.25487 1.19401 0.70715
upperback -4.55851 1.58644 -0.0983811
thorax -8.87646 0.68823 -0.730316
lowerneck -8.32479 -2.74607 -6.03563
upperneck 13.09 -3.90244 5.29797
head 5.5314 -1.94576 2.35625
rclavicle -1.02623e-014 -4.96962e-016
rhumerus -46.3231 21.8329 -103.465
rradius 35.0085
rwrist 18.9145
rhand -5.5096 -52.9741
rfingers 7.12502
rthumb 20.3037 -441.933
lclavicle -1.02623e-014 -4.96962e-016
lhumerus -42.5584 -6.86584 91.5133
lradius 34.1586
lwrist -18.1949
lhand -0.928679 -33.9034
lfingers 7.12502
lthumb 24.7006 -5.4778
rfemur 2.14549 19.5949 27.5284
rtibia 12.6059
rfoot -12.935 -33.1064
rtoes 2.86718
lfemur -3.19553 -21.771 -24.7968
ltibia 20.4422
lfoot -19.8708 23.9912
ltoes -24.977
397
root 7.67274 15.6236 14.5492 -180.71 -0.637446 -179.384
lowerback 7.21039 1.20642 0.70708
upperback -4.51673 1.60574 -0.0812721
thorax -8.80499 0.699756 -0.713428
lowerneck -8.37145 -2.74607 -6.05636
upperneck 13.2024 -3.90562 5.29406
head 5.57486 -1.94984 2.35754
rclavicle -7.33018e-015 -6.95746e-016
rhumerus -46.26 21.8223 -103.385
rradius 34.9902
rwrist 18.9072
rhand -5.18674 -52.9529
rfingers 7.12502
rthumb 20.614 -441.878
lclavicle -7.33018e-015 -6.95746e-016
lhumerus -42.5446 -6.92202 91.5779
lradius 34.2139
lwrist -18.1044
lhand -0.914349 -33.8172
lfingers 7.12502
lthumb 24.7143 -5.39351
rfemur 2.22667 19.4499 27.5318
rtibia 12.5354
rfoot -12.8537 -32.9773
rtoes 2.69854
lfemur -3.14073 -21.727 -24.8134
ltibia 20.498
lfoot -20.0095 24.0083
ltoes -24.9489
398
root 7.67159 15.6232 14.5472 -180.737 -0.583077 -179.386
lowerback 7.18746 1.23584 0.767395
upperback -4.49173 1.65115 -0.101432
thorax -8.76128 0.718514 -0.774353
lowerneck -8.43884 -2.75471 -6.08734
upperneck 13.2847 -3.92473 5.35611
head 5.6149 -1.95671 2.37991
rclavicle -8.64713e-015 -2.88238e-015
rhumerus -46.2528 21.947 -103.494
rradius 34.8748
rwrist 18.8047
rhand -5.5305 -52.9114
rfingers 7.12502
rthumb 20.2836 -441.872
lclavicle -8.64713e-015 -2.88238e-015
lhumerus -42.5744 -6.96305 91.5999
lradius 34.3258
lwrist -18.0822
lhand -0.892592 -33.7691
lfingers 7.12502
lthumb 24.7352 -5.34832
rfemur 2.28071 19.2682 27.5043
rtibia 12.47
rfoot -12.7711 -32.7982
rtoes 2.50203
lfemur -3.11162 -21.6011 -24.8377
ltibia 20.5585
lfoot -20.0317 24.0338
ltoes -25.3754
399
root 7.67136 15.6233 14.5461 -180.728 -0.558264 -179.386
lowerback 7.18708 1.25976 0.814708
upperback -4.50735 1.68571 -0.127015
thorax -8.77533 0.731096 -0.833166
lowerneck -8.49336 -2.7637 -6.12948
upperneck 13.3951 -3.95324 5.45618
head 5.66299 -1.96746 2.41552
rclavicle -1.22128e-014 8.94531e-016
rhumerus -46.3131 21.9078 -103.543
rradius 34.8905
rwrist 18.8034
rhand -5.96486 -52.8084
rfingers 7.12502
rthumb 19.8661 -441.813
lclavicle -1.22128e-014 8.94531e-016
lhumerus -42.6016 -7.05474 91.6248
lradius 34.3623
lwrist -17.9817
lhand -1.79082 -34.347
lfingers 7.12502
lthumb 23.874 -5.81084
rfemur 2.32127 19.3643 27.5175
rtibia 12.4117
rfoot -12.835 -32.8287
rtoes 2.71239
lfemur -3.1521 -21.488 -24.8335
ltibia 20.6261
lfoot -20.0121 23.9564
ltoes -25.676
400
root 7.67131 15.6234 14.545 -180.724 -0.563632 -179.355
lowerback 7.18998 1.27249 0.852403
upperback -4.52558 1.70713 -0.114529
thorax -8.79578 0.739013 -0.844512
lowerneck -8.54386 -2.7965 -6.17323
upperneck 13.5332 -4.00283 5.46726
head 5.71885 -1.99487 2.4216
rclavicle 1.05107e-014 1.39149e-015
rhumerus -46.3322 21.855 -103.467
rradius 34.9625
rwrist 18.719
rhand -5.1839 -52.9778
rfingers 7.12502
rthumb 20.6167 -441.903
lclavicle 1.05107e-014 1.39149e-015
lhumerus -42.6143 -7.15058 91.699
lradius 34.3665
lwrist -17.9023
lhand -4.34878 -36.0962
lfingers 7.12502
lthumb 21.419 -7.2602
rfemur 2.34679 19.4596 27.5663
rtibia 12.3801
rfoot -12.8448 -32.9191
rtoes 2.98967
lfemur -3.19464 -21.5123 -24.8022
ltibia 20.6968
lfoot -20.102 23.9086
ltoes -25.3888
401
root 7.67164 15.6219 14.5437 -180.736 -0.596041 -179.292
lowerback 7.20369 1.27129 0.92592
upperback -4.53119 1.71562 -0.0902035
thorax -8.80845 0.739316 -0.861667
lowerneck -8.5988 -2.81734 -6.2023
upperneck 13.6329 -4.03008 5.45634
head 5.7615 -2.01097 2.42005
rclavicle 9.29318e-015 0
rhumerus -46.3471 21.8948 -103.447
rradius 34.9863
rwrist 18.6735
rhand -4.21112 -53.2239
rfingers 7.12502
rthumb 21.5512 -442.045
lclavicle 9.29318e-015 0
lhumerus -42.6141 -7.17622 91.7446
lradius 34.3426
lwrist -17.974
lhand -4.61413 -36.1035
lfingers 7.12502
lthumb 21.1641 -7.23868
rfemur 2.38328 19.4373 27.646
rtibia 12.3547
rfoot -12.7756 -32.9593
rtoes 2.96182
lfemur -3.22544 -21.5204 -24.7296
ltibia 20.7686
lfoot -20.1628 23.8692
ltoes -25.3182
402
root 7.6733 15.6201 14.5429 -180.73 -0.640878 -179.265
lowerback 7.21122 1.25875 0.963262
upperback -4.55106 1.70148 -0.0982183
thorax -8.83346 0.729142 -0.88947
lowerneck -8.60255 -2.81107 -6.14993
upperneck 13.6917 -4.03095 5.42883
head 5.77897 -2.01218 2.40253
rclavicle 6.95746e-015 3.57812e-015
rhumerus -46.3834 21.8149 -103.464
rradius 34.9999
rwrist 18.7981
rhand -4.04071 -53.2648
rfingers 7.12502
rthumb 21.7149 -442.067
lclavicle 6.95746e-015 3.57812e-015
lhumerus -42.6488 -7.16414 91.7286
lradius 34.3031
lwrist -18.0844
lhand -5.38133 -36.3699
lfingers 7.12502
lthumb 20.427 -7.42439
rfemur 2.41317 19.4421 27.6918
rtibia 12.3108
rfoot -12.7029 -32.997
rtoes 2.81318
lfemur -3.28058 -21.4017 -24.6701
ltibia 20.8392
lfoot -20.1379 23.7355
ltoes -25.7817
403
root 7.67573 15.6196 14.5411 -180.714 -0.689824 -179.26
lowerback 7.20088 1.24237 0.972832
upperback -4.56996 1.6777 -0.119198
thorax -8.84751 0.715565 -0.913528
lowerneck -8.5702 -2.80389 -6.07046
upperneck 13.7189 -4.03505 5.40106
head 5.77996 -2.0141 2.3806
rclavicle -5.36719e-015 9.93923e-016
rhumerus -46.3485 21.7055 -103.478
rradius 34.9462
rwrist 18.8433
rhand -3.98311 -53.2788
rfingers 7.12502
rthumb 21.7702 -442.074
lclavicle -5.36719e-015 9.93923e-016
lhumerus -42.6474 -7.21358 91.7224
lradius 34.2658
lwrist -18.0688
lhand -5.75734 -36.5618
lfingers 7.12502
lthumb 20.0656 -7.57797
rfemur 2.44845 19.4877 27.7208
rtibia 12.2444
rfoot -12.4923 -33.0892
rtoes 2.3707
lfemur -3.3483 -21.2156 -24.619
ltibia 20.9038
lfoot -20.0701 23.5235
ltoes -26.004
404
root 7.67691 15.6192 14.5379 -180.745 -0.700935 -179.244
lowerback 7.20096 1.24157 1.00253
upperback -4.56469 1.67965 -0.126221
thorax -8.84073 0.714698 -0.937848
lowerneck -8.51601 -2.80976 -6.05221
upperneck 13.6917 -4.05079 5.41508
head 5.76294 -2.02113 2.38137
rclavicle 2.09718e-014 1.49089e-015
rhumerus -46.2924 21.7067 -103.52
rradius 34.8403
rwrist 18.739
rhand -4.10605 -53.2444
rfingers 7.12502
rthumb 21.6521 -442.054
lclavicle 2.09718e-014 1.49089e-015
lhumerus -42.62 -7.32217 91.7535
lradius 34.2648
lwrist -17.898
lhand -5.56192 -36.5074
lfingers 7.12502
lthumb 20.2534 -7.54336
rfemur 2.55035 19.5196 27.7671
rtibia 12.1533
rfoot -12.3866 -33.1371
rtoes 2.23911
lfemur -3.35177 -21.118 -24.5932
ltibia 20.9698
lfoot -20.0845 23.3975
ltoes -25.71
